<svg xmlns="http://www.w3.org/2000/svg"  viewBox="0 0 48 48" width="48px" height="48px"><path d="M 22.5 1 C 21.130937 1 20 2.1309372 20 3.5 L 20 6.5371094 C 18.010362 6.9917419 16.155535 7.7661122 14.476562 8.8203125 L 12.332031 6.6757812 C 11.36392 5.7076702 9.7643118 5.7066907 8.796875 6.6757812 L 6.6757812 8.796875 C 5.7076702 9.7649862 5.7066907 11.364594 6.6757812 12.332031 L 8.8203125 14.476562 C 7.7660236 16.155411 6.9919343 18.010216 6.5371094 20 L 3.5 20 C 2.1309372 20 1 21.130937 1 22.5 L 1 25.5 C 1 26.869063 2.1309372 28 3.5 28 L 6.5371094 28 C 6.9917419 29.989638 7.7661122 31.844465 8.8203125 33.523438 L 6.6757812 35.667969 C 5.7076702 36.63608 5.7066907 38.235688 6.6757812 39.203125 L 8.7949219 41.324219 C 9.7626308 42.291928 11.364322 42.291928 12.332031 41.324219 L 14.476562 39.179688 C 16.15488 40.233632 18.008815 41.006656 19.998047 41.460938 L 19.998047 44.498047 C 19.998047 45.86711 21.128984 46.998047 22.498047 46.998047 L 25.498047 46.998047 C 26.86711 46.998047 27.998047 45.86711 27.998047 44.498047 L 27.998047 41.462891 C 29.987843 41.008272 31.842394 40.233961 33.521484 39.179688 L 35.666016 41.324219 C 36.633669 42.291872 38.233595 42.291935 39.201172 41.324219 L 41.322266 39.203125 C 42.290377 38.235014 42.291356 36.635406 41.322266 35.667969 L 39.177734 33.523438 C 40.232026 31.844568 41.006723 29.989968 41.460938 28 L 44.498047 28 C 45.86711 28 46.998047 26.869063 46.998047 25.5 L 46.998047 22.501953 L 46.998047 22.5 C 47.000284 21.130507 45.868417 20 44.5 20 L 41.462891 20 C 41.008258 18.010362 40.233888 16.155535 39.179688 14.476562 L 41.324219 12.332031 C 42.29233 11.36392 42.293309 9.7643118 41.324219 8.796875 L 39.205078 6.6757812 C 38.237369 5.7080724 36.635678 5.7080724 35.667969 6.6757812 L 33.523438 8.8203125 C 31.844075 7.7661119 29.989786 6.9919346 28 6.5371094 L 28 3.5 C 28 2.1309372 26.869063 1 25.5 1 L 22.5 1 z M 22.5 3 L 25.5 3 C 25.786937 3 26 3.2130628 26 3.5 L 26 7.2792969 A 1.0001 1.0001 0 0 0 26.824219 8.2636719 C 29.139966 8.6770973 31.279492 9.5803763 33.134766 10.873047 A 1.0001 1.0001 0 0 0 34.414062 10.759766 L 37.083984 8.0898438 C 37.288275 7.8855527 37.584772 7.8855527 37.789062 8.0898438 L 39.910156 10.210938 A 1.0001 1.0001 0 0 0 39.912109 10.210938 C 40.115019 10.4135 40.114092 10.71408 39.910156 10.917969 L 37.240234 13.587891 A 1.0001 1.0001 0 0 0 37.126953 14.867188 C 38.419347 16.721122 39.322857 18.859775 39.736328 21.175781 A 1.0001 1.0001 0 0 0 40.720703 22 L 44.5 22 C 44.786937 22 44.998737 22.212412 44.998047 22.498047 A 1.0001 1.0001 0 0 0 44.998047 22.5 L 44.998047 25.5 C 44.998047 25.786937 44.784984 26 44.498047 26 L 40.71875 26 A 1.0001 1.0001 0 0 0 39.734375 26.824219 C 39.321939 29.139649 38.417524 31.27869 37.125 33.132812 A 1.0001 1.0001 0 0 0 37.238281 34.412109 L 39.908203 37.082031 A 1.0001 1.0001 0 0 0 39.910156 37.082031 C 40.113066 37.284594 40.112139 37.585175 39.908203 37.789062 L 37.787109 39.910156 C 37.584546 40.113066 37.28592 40.114045 37.082031 39.910156 L 34.410156 37.240234 A 1.0001 1.0001 0 0 0 33.132812 37.126953 C 31.278878 38.419347 29.140225 39.320903 26.824219 39.734375 A 1.0001 1.0001 0 0 0 25.998047 40.71875 L 25.998047 44.498047 C 25.998047 44.784984 25.784984 44.998047 25.498047 44.998047 L 22.498047 44.998047 C 22.21111 44.998047 21.998047 44.784984 21.998047 44.498047 L 21.998047 40.71875 A 1.0001 1.0001 0 0 0 21.173828 39.734375 C 18.85835 39.321939 16.719357 38.419477 14.865234 37.126953 A 1.0001 1.0001 0 0 0 13.585938 37.240234 L 10.916016 39.910156 C 10.711725 40.114447 10.415229 40.114447 10.210938 39.910156 L 8.0898438 37.789062 A 1.0001 1.0001 0 0 0 8.0878906 37.789062 C 7.884978 37.5865 7.8859549 37.28592 8.0898438 37.082031 L 10.759766 34.412109 A 1.0001 1.0001 0 0 0 10.873047 33.132812 C 9.5806532 31.278878 8.6771435 29.140225 8.2636719 26.824219 A 1.0001 1.0001 0 0 0 7.2792969 26 L 3.5 26 C 3.2130628 26 3 25.786937 3 25.5 L 3 22.5 C 3 22.213063 3.2130628 22 3.5 22 L 7.2792969 22 A 1.0001 1.0001 0 0 0 8.2636719 21.175781 C 8.6770973 18.860034 9.580523 16.72131 10.873047 14.867188 A 1.0001 1.0001 0 0 0 10.759766 13.587891 L 8.0898438 10.917969 C 7.8869343 10.715406 7.8859548 10.414825 8.0898438 10.210938 L 10.210938 8.0898438 A 1.0001 1.0001 0 0 0 10.210938 8.0878906 C 10.4135 7.8849812 10.71408 7.8859581 10.917969 8.0898438 L 13.587891 10.759766 A 1.0001 1.0001 0 0 0 14.867188 10.873047 C 16.721122 9.5806532 18.859775 8.6771435 21.175781 8.2636719 A 1.0001 1.0001 0 0 0 22 7.2792969 L 22 3.5 C 22 3.2130628 22.213063 3 22.5 3 z M 24 14 C 18.488994 14 14 18.488998 14 24 C 14 29.511002 18.488994 34 24 34 C 29.511006 34 34 29.511002 34 24 C 34 18.488998 29.511006 14 24 14 z M 24 16 C 28.430126 16 32 19.569877 32 24 C 32 28.430123 28.430126 32 24 32 C 19.569874 32 16 28.430123 16 24 C 16 19.569877 19.569874 16 24 16 z"/></svg>